<?xml version="1.0" ?><svg style="enable-background:new 0 0 24 24;" version="1.1" viewBox="0 0 24 24" xml:space="preserve" xmlns="http://www.w3.org/2000/svg" xmlns:xlink="http://www.w3.org/1999/xlink"><style type="text/css">
	.st0{display:none;}
</style><g class="st0" id="grid"/><g id="icon"><path d="M12,0C5.383,0,0,5.383,0,12s5.383,12,12,12s12-5.383,12-12S18.617,0,12,0z M12,23C5.935,23,1,18.065,1,12S5.935,1,12,1   s11,4.935,11,11S18.065,23,12,23z"/><path d="M12,6.5c-3.467,0-6.702,2.017-8.441,5.264c-0.079,0.148-0.079,0.325,0,0.473C5.298,15.483,8.533,17.5,12,17.5   s6.702-2.017,8.441-5.264c0.079-0.148,0.079-0.325,0-0.473C18.702,8.517,15.467,6.5,12,6.5z M12,16.5   c-3.014,0-5.836-1.717-7.429-4.5C6.164,9.217,8.986,7.5,12,7.5s5.836,1.717,7.429,4.5C17.836,14.783,15.014,16.5,12,16.5z"/><path d="M12,9c-1.654,0-3,1.346-3,3s1.346,3,3,3s3-1.346,3-3S13.654,9,12,9z M12,14c-1.103,0-2-0.897-2-2s0.897-2,2-2s2,0.897,2,2   S13.103,14,12,14z"/></g></svg>