<?xml version="1.0" ?><svg style="enable-background:new 0 0 24 24;" version="1.1" viewBox="0 0 24 24" xml:space="preserve" xmlns="http://www.w3.org/2000/svg" xmlns:xlink="http://www.w3.org/1999/xlink"><style type="text/css">
	.st0{display:none;}
</style><g class="st0" id="grid"/><g id="icon"><path d="M12.984,18.407c-0.195,0.195-0.195,0.512,0,0.707s0.512,0.195,0.707,0l6.701-6.701c3.168-3.168,2.284-6.31,0.4-8.193   c-1.117-1.117-2.43-1.708-3.796-1.708c-0.003,0-0.006,0-0.009,0C15.472,2.515,13.995,3.224,12.6,4.62l-9.566,9.566   c-1.024,1.024-1.54,2.109-1.533,3.226c0.006,1.003,0.447,1.972,1.275,2.8c0.828,0.829,1.797,1.27,2.801,1.276   c0.007,0,0.014,0,0.021,0c1.108,0,2.187-0.516,3.204-1.533l6.872-6.872c1.497-1.497,1.063-2.998,0.158-3.903   c-0.534-0.535-1.165-0.819-1.823-0.821c-0.003,0-0.006,0-0.009,0c-0.713,0-1.429,0.339-2.07,0.98l-6.056,6.056   c-0.195,0.195-0.195,0.512,0,0.707s0.512,0.195,0.707,0l6.056-6.056C13.093,9.589,13.552,9.358,14,9.358c0.002,0,0.003,0,0.005,0   c0.491,0.002,0.88,0.288,1.12,0.528s0.527,0.63,0.529,1.121c0.002,0.449-0.229,0.91-0.688,1.368l-6.872,6.872   c-0.823,0.823-1.663,1.24-2.498,1.24c-0.005,0-0.01,0-0.015,0c-0.735-0.004-1.461-0.344-2.1-0.983   c-0.639-0.638-0.979-1.364-0.982-2.099c-0.005-0.839,0.412-1.685,1.24-2.513l9.566-9.566c1.202-1.202,2.441-1.813,3.684-1.815   c0.003,0,0.005,0,0.007,0c1.095,0,2.163,0.489,3.089,1.415c2.026,2.027,1.881,4.498-0.4,6.779L12.984,18.407z"/></g></svg>